<?xml version="1.0" standalone="no"?><!DOCTYPE svg PUBLIC "-//W3C//DTD SVG 1.1//EN" "http://www.w3.org/Graphics/SVG/1.1/DTD/svg11.dtd"><svg t="1669549269955" class="icon" viewBox="0 0 1323 1024" version="1.1" xmlns="http://www.w3.org/2000/svg" p-id="9304" xmlns:xlink="http://www.w3.org/1999/xlink" width="258.3984375" height="200"><path d="M295.885162 290.240781a163.251644 163.251644 0 0 0-37.529113 54.417215 165.753584 165.753584 0 0 0-13.13519 62.548522 160.749703 160.749703 0 0 0 0 18.764557l5.003882 36.278143-28.77232 17.513586a237.0589 237.0589 0 0 0-62.548523 53.79173 225.800166 225.800166 0 0 0-53.166244 147.614513A229.553077 229.553077 0 0 0 125.127696 773.115375a233.931474 233.931474 0 0 0 53.166244 76.309197 237.0589 237.0589 0 0 0 170.757466 69.42886H938.258488a283.344807 283.344807 0 0 0 105.707003-20.015527 278.340925 278.340925 0 0 0 89.444387-59.421097 270.209617 270.209617 0 0 0 62.548522-87.567931 264.58025 264.58025 0 0 0 20.641013-103.830547 259.576368 259.576368 0 0 0-42.532996-143.861602L1170.938991 500.403817a273.337043 273.337043 0 0 0-71.305315-71.930801l-21.266498-14.38616v-25.644894a288.974174 288.974174 0 0 0-22.517468-93.822784 304.611304 304.611304 0 0 0-68.803375-98.826666A312.742612 312.742612 0 0 0 885.092244 125.112682a316.495524 316.495524 0 0 0-119.467678-22.517468 307.73873 307.73873 0 0 0-174.510378 51.915274 312.742612 312.742612 0 0 0-75.058227 73.181771l-21.266497 27.52135-33.776202-8.756793a181.390715 181.390715 0 0 0-44.409451-5.003882 175.135863 175.135863 0 0 0-62.548523 12.509704 173.259407 173.259407 0 0 0-58.170126 36.278143zM938.258488 1023.93495H347.800436A352.773667 352.773667 0 0 1 215.197568 1000.791996a347.1443 347.1443 0 0 1-111.961855-73.807256A332.132654 332.132654 0 0 1 0.030651 681.794532a329.005228 329.005228 0 0 1 77.560168-215.166917 347.769785 347.769785 0 0 1 62.548522-59.421097 267.707676 267.707676 0 0 1 21.266498-103.205062 270.835102 270.835102 0 0 1 62.548523-88.818902 275.213499 275.213499 0 0 1 193.274934-79.436623 303.360334 303.360334 0 0 1 36.903628 0 425.329953 425.329953 0 0 1 78.811138-65.675949A411.569278 411.569278 0 0 1 766.250051 0.015637a420.326071 420.326071 0 0 1 158.873247 30.023291 414.696704 414.696704 0 0 1 135.104809 88.818902A410.318307 410.318307 0 0 1 1152.174435 250.209727a389.677295 389.677295 0 0 1 28.146835 103.205062 379.669531 379.669531 0 0 1 81.313079 88.193417l10.633249 16.262615a363.406915 363.406915 0 0 1 51.289788 187.645568 370.287253 370.287253 0 0 1-28.77232 145.112572 375.291135 375.291135 0 0 1-84.440506 121.969619 384.673413 384.673413 0 0 1-125.097044 81.313079 389.05181 389.05181 0 0 1-146.989028 30.023291z" fill="#1296db" p-id="9305"></path></svg>