<?xml version="1.0" standalone="no"?><!DOCTYPE svg PUBLIC "-//W3C//DTD SVG 1.1//EN" "http://www.w3.org/Graphics/SVG/1.1/DTD/svg11.dtd"><svg t="1669812098739" class="icon" viewBox="0 0 1024 1024" version="1.1" xmlns="http://www.w3.org/2000/svg" p-id="7094" xmlns:xlink="http://www.w3.org/1999/xlink" width="200" height="200"><path d="M981.333333 128l-170.666666 341.333333-49.493334-123.733333c-139.946667 76.8-332.373333 236.501333-397.653333 379.733333h-14.08a504.448 504.448 0 0 1 299.52-554.666666l34.56-19.285334L640 42.666667zM277.333333 853.333333H938.666667a128 128 0 0 1-128 128H170.666667a128 128 0 0 1-128-128V341.333333a128 128 0 0 1 128-128v533.333334A106.666667 106.666667 0 0 0 277.333333 853.333333z" p-id="7095"></path></svg>