<svg xmlns="http://www.w3.org/2000/svg" xmlns:xlink="http://www.w3.org/1999/xlink" viewBox="0 0 622.52 468.5"><defs><style>.cls-1{fill:url(#未命名的渐变_64);}.cls-2{fill:url(#未命名的渐变_64-2);}.cls-3{fill:url(#未命名的渐变_64-3);}.cls-4{fill:url(#未命名的渐变_64-4);}.cls-5{fill:url(#未命名的渐变_64-5);}.cls-6{fill:url(#未命名的渐变_64-6);}.cls-7{fill:url(#未命名的渐变_64-7);}.cls-8{fill:url(#未命名的渐变_64-8);}.cls-9{fill:url(#未命名的渐变_64-9);}.cls-10{fill:url(#未命名的渐变_64-10);}.cls-11{opacity:0.33;fill:url(#未命名的渐变_64-11);}.cls-12{fill:url(#未命名的渐变_73);}</style><linearGradient id="未命名的渐变_64" x1="244.91" y1="1426.66" x2="244.91" y2="1791.46" gradientTransform="translate(1282.85 -1055.72) rotate(45)" gradientUnits="userSpaceOnUse"><stop offset="0.02" stop-color="#5baaaa"/><stop offset="1" stop-color="#499389"/></linearGradient><linearGradient id="未命名的渐变_64-2" x1="147.06" y1="1429.01" x2="306.6" y2="1429.01" xlink:href="#未命名的渐变_64"/><linearGradient id="未命名的渐变_64-3" x1="111.32" y1="1447.57" x2="335.39" y2="1447.57" xlink:href="#未命名的渐变_64"/><linearGradient id="未命名的渐变_64-4" x1="77.24" y1="1476.48" x2="357.72" y2="1476.48" xlink:href="#未命名的渐变_64"/><linearGradient id="未命名的渐变_64-5" x1="62.64" y1="1501.94" x2="380.07" y2="1501.94" xlink:href="#未命名的渐变_64"/><linearGradient id="未命名的渐变_64-6" x1="52.69" y1="1557.1" x2="413.98" y2="1557.1" xlink:href="#未命名的渐变_64"/><linearGradient id="未命名的渐变_64-7" x1="59.5" y1="1595.35" x2="423.18" y2="1595.35" xlink:href="#未命名的渐变_64"/><linearGradient id="未命名的渐变_64-8" x1="82.05" y1="1643.6" x2="435.09" y2="1643.6" xlink:href="#未命名的渐变_64"/><linearGradient id="未命名的渐变_64-9" x1="127.39" y1="1684.06" x2="437.15" y2="1684.06" xlink:href="#未命名的渐变_64"/><linearGradient id="未命名的渐变_64-10" x1="177.71" y1="1739.81" x2="417.32" y2="1739.81" xlink:href="#未命名的渐变_64"/><linearGradient id="未命名的渐变_64-11" x1="70.69" y1="1688.69" x2="438.64" y2="1688.69" xlink:href="#未命名的渐变_64"/><radialGradient id="未命名的渐变_73" cx="225.13" cy="1599.16" r="275.41" gradientTransform="translate(1282.85 -1055.72) rotate(45)" gradientUnits="userSpaceOnUse"><stop offset="0.02" stop-color="#fff000"/><stop offset="1" stop-color="#4f9e9c"/></radialGradient></defs><g id="图层_2" data-name="图层 2"><g id="图层_1-2" data-name="图层 1"><path class="cls-1" d="M459.36,386q-6,6-12.47,11.42a192.35,192.35,0,0,1-298.36-67.49c-2.48-5.4-4.69-10.91-6.63-16.48a193.45,193.45,0,0,1-9.58-84.06A188.43,188.43,0,0,1,136,207.13a191,191,0,0,1,12.85-37.76q3.41-7.35,7.47-14.45a188.88,188.88,0,0,1,22.75-31.83q3.48-4,7.24-7.79c.38-.4.77-.79,1.16-1.18a191.76,191.76,0,0,1,50.36-36.26q6.94-3.45,14.07-6.28A181.94,181.94,0,0,1,271.39,65c3.37-.94,6.74-1.79,10.14-2.53a191.48,191.48,0,0,1,45.17-4.57c4.28.06,8.57.27,12.82.65a190.41,190.41,0,0,1,31.74,5.33q8.63,2.19,17.07,5.22A192.89,192.89,0,0,1,493.59,160.5c2.83,5.37,5.4,10.87,7.69,16.43,1.06,2.61,2.07,5.22,3,7.86q1.68,4.61,3.08,9.29A185.37,185.37,0,0,1,512.63,216c.24,1.23.45,2.47.63,3.73a186.76,186.76,0,0,1,2.07,19c.2,3.41.31,6.8.33,10.2A192.07,192.07,0,0,1,511,292.4c-.93,4.18-2,8.35-3.23,12.46q-2,6.64-4.43,13.16-1.35,3.62-2.87,7.15a188.2,188.2,0,0,1-17.56,32.32c-1.62,2.41-3.31,4.8-5.06,7.14a187.31,187.31,0,0,1-12.56,15.19Q462.4,383,459.36,386Z"/><path class="cls-2" d="M501.28,176.93c-2.29-5.56-4.86-11.06-7.69-16.43-31.42-20.09-67.23-48.95-105.26-91.43q-8.43-3-17.07-5.22C405.64,111.63,465,156.12,501.28,176.93Z"/><path class="cls-3" d="M474.39,180.8c11.34,5,22.72,9.51,33,13.28q-1.39-4.68-3.08-9.29c-4.85-2.23-9.39-4.33-13.08-6.09-40.65-19.48-93.71-54-151.68-120.18-4.25-.38-8.54-.59-12.82-.65C367,114.56,442.88,166.83,474.39,180.8Z"/><path class="cls-4" d="M453.89,200.84c22.45,7.86,44.54,14.78,59.37,18.92-.18-1.26-.39-2.5-.63-3.73-13.73-5-31.64-11.59-41.86-17.82-41.5-25.33-103.43-65.84-189.24-135.77-3.4.74-6.77,1.59-10.14,2.53C327.25,132.14,425,190.74,453.89,200.84Z"/><path class="cls-5" d="M449,233.38A655.59,655.59,0,0,0,515.66,249c0-3.4-.13-6.79-.33-10.2-14.58-4.5-30.24-9.21-41-12.75C413.5,205.91,334.45,164.57,251.93,71.58q-7.14,2.83-14.07,6.28C290,156.51,402.19,219.71,449,233.38Z"/><path class="cls-6" d="M471.8,297.32c12.17,2.84,24.3,5.35,35.93,7.54,1.22-4.11,2.3-8.28,3.23-12.46-4.86-1.22-9.36-2.38-13.31-3.42-77.37-20.48-184.2-65.44-311.31-173.68q-3.76,3.81-7.24,7.79C253.68,212.13,412.36,283.45,471.8,297.32Z"/><path class="cls-7" d="M500.43,325.17q1.51-3.54,2.87-7.15c-21.39-5.58-51.6-12.65-69.94-17.51-70.3-18.62-164.94-57.44-277-145.59q-4.07,7.1-7.47,14.45C230.14,241.76,356,296.85,407.5,308.86A868,868,0,0,0,500.43,325.17Z"/><path class="cls-8" d="M477.81,364.63c1.75-2.34,3.44-4.73,5.06-7.14-14.93-2.86-29.52-6.22-40-10.17C375,321.76,275.31,280.77,136,207.13a188.43,188.43,0,0,0-3.71,22.25C238.2,301.17,374.71,350.15,417.1,356.53,438.29,359.73,459.19,362.47,477.81,364.63Z"/><path class="cls-9" d="M465.25,379.82c-18.59-2.05-36.81-4-50.38-5.84-76.37-10.11-172.36-35.92-282.1-99.46a191.71,191.71,0,0,0,9.13,38.92c90.53,47.05,186.19,75,235.17,79.7,23.92,2.31,47.8,3.65,69.82,4.27Q453.31,392,459.36,386,462.39,383,465.25,379.82Z"/><path class="cls-10" d="M173.31,370.14c61.1,32,122.51,56.65,168.84,71.25a190.51,190.51,0,0,0,43-9.25c-66.07-18-145.6-48.66-236.64-102.22A190.18,190.18,0,0,0,173.31,370.14Z"/><path class="cls-11" d="M446.68,398.63c-47.88-16.42-112.1-50.78-178.07-97.49-53.21-37.67-98.6-77-130.81-111.83-1.05,3.71-2,7.47-2.8,11.24A186.77,186.77,0,0,0,131.5,223a193.43,193.43,0,0,0,1,45.67c.68,4.94,1.55,9.84,2.61,14.73,26.52,22.73,55.62,45.47,86.75,67.52,48.72,34.49,97.21,63.65,142.52,86.44A189.21,189.21,0,0,0,389.52,431a187.07,187.07,0,0,0,58.77-31.78C447.76,399,447.21,398.82,446.68,398.63Z"/><path class="cls-12" d="M615.24,447.77C640.48,411.33,598.39,334.64,515.3,252a190.94,190.94,0,0,1-4.68,40.73c-.26,1.17-.53,2.34-.82,3.49,29.61,35.43,42.74,64.49,32.58,79.16-9.24,13.35-36.24,12.58-73.65.47-.75-.23-1.51-.48-2.26-.73-47.17-15.71-110.29-49-175-94.43-58-40.77-106.53-83.73-138.21-120.43l-3-3.49c-30.43-36-44.06-65.66-33.76-80.54C128.16,59.44,167.92,65,221.1,87.4h0L263.77,67.5h0C140.43,1.53,35.59-20.17,7.28,20.74c-26.7,38.55,21.94,122.15,114.81,210.18,3,2.83,6,5.66,9.08,8.49a1106.59,1106.59,0,0,0,113.47,91C299.91,369.27,355,401,405.28,424.24l5.56,2.53C510.75,471.93,591,482.77,615.24,447.77Z"/></g></g></svg>